<svg width="80" height="80" viewBox="0 0 80 80" fill="none" xmlns="http://www.w3.org/2000/svg">
<rect width="80" height="80" rx="18" fill="url(#paint0_linear_320_11208)"/>
<path d="M47.7217 18.0343C48.2418 17.8793 48.7646 18.2689 48.7646 18.8117V30.4337C48.7649 30.9763 49.2876 31.3652 49.8076 31.2101L58.957 28.4816C59.4772 28.3265 59.9999 28.7162 60 29.2589V42.0538C60 42.4125 59.7646 42.7286 59.4209 42.8312L49.3438 45.837C49.0001 45.9396 48.7646 46.2558 48.7646 46.6144V61.1837C48.7646 61.7265 48.2418 62.1161 47.7217 61.9611L19.5791 53.5744C19.2355 53.4718 19 53.1556 19 52.797V27.1984C19 26.8397 19.2355 26.5236 19.5791 26.421L47.7217 18.0343ZM45.6582 32.4122L22.627 39.2472C22.3699 39.3238 22.3693 39.6872 22.626 39.7648L45.6572 46.6925C45.8306 46.7445 46.0049 46.6148 46.0049 46.4337V32.672C46.0049 32.4914 45.8313 32.3613 45.6582 32.4122Z" fill="white"/>
<defs>
<linearGradient id="paint0_linear_320_11208" x1="40" y1="0" x2="40" y2="80" gradientUnits="userSpaceOnUse">
<stop stop-color="#63CC00"/>
<stop offset="1" stop-color="#3A9700"/>
</linearGradient>
</defs>
</svg>
