<svg width="122" height="30" viewBox="0 0 122 30" fill="none" xmlns="http://www.w3.org/2000/svg">
<path d="M30.3115 0.0342318C30.8316 -0.120545 31.3535 0.268944 31.3535 0.811576V8.09771C31.3535 8.64041 31.8764 9.02996 32.3965 8.87505L38.0166 7.19927C38.5368 7.04414 39.0596 7.43382 39.0596 7.97661V16.2198C39.0596 16.5784 38.8241 16.8946 38.4805 16.9971L31.9336 18.9502C31.5899 19.0528 31.3535 19.3689 31.3535 19.7276V29.1876C31.3535 29.7302 30.8316 30.1197 30.3115 29.9649L11.5195 24.3653C11.1759 24.2628 10.9405 23.9465 10.9404 23.5879V6.41118C10.9405 6.05262 11.1759 5.73636 11.5195 5.63384L30.3115 0.0342318ZM29.1143 9.83013L13.7002 14.4043C13.4434 14.4811 13.4427 14.8443 13.6992 14.9219L29.1133 19.5586C29.2867 19.6107 29.4608 19.4809 29.4609 19.2999V10.0889C29.4608 9.90833 29.2874 9.77884 29.1143 9.83013Z" fill="url(#paint0_linear_311_9445)"/>
<path d="M59.405 22.7695C57.8 22.7695 56.345 22.4245 55.04 21.7345C53.75 21.0295 52.73 20.062 51.98 18.832C51.245 17.587 50.8775 16.1845 50.8775 14.6245C50.8775 13.0645 51.245 11.6695 51.98 10.4395C52.73 9.19451 53.75 8.22701 55.04 7.53701C56.345 6.83201 57.8075 6.47951 59.4275 6.47951C60.7925 6.47951 62.0225 6.71951 63.1175 7.19951C64.2275 7.67951 65.1575 8.36951 65.9075 9.26951L63.5675 11.4295C62.5025 10.1995 61.1825 9.58451 59.6075 9.58451C58.6325 9.58451 57.7625 9.80201 56.9975 10.237C56.2325 10.657 55.6325 11.2495 55.1975 12.0145C54.7775 12.7795 54.5675 13.6495 54.5675 14.6245C54.5675 15.5995 54.7775 16.4695 55.1975 17.2345C55.6325 17.9995 56.2325 18.5995 56.9975 19.0345C57.7625 19.4545 58.6325 19.6645 59.6075 19.6645C61.1825 19.6645 62.5025 19.042 63.5675 17.797L65.9075 19.957C65.1575 20.872 64.2275 21.5695 63.1175 22.0495C62.0075 22.5295 60.77 22.7695 59.405 22.7695ZM68.1215 5.80451H71.6315V22.4995H68.1215V5.80451ZM86.7465 16.492C86.7465 16.537 86.724 16.852 86.679 17.437H77.5215C77.6865 18.187 78.0765 18.7795 78.6915 19.2145C79.3065 19.6495 80.0715 19.867 80.9865 19.867C81.6165 19.867 82.1715 19.777 82.6515 19.597C83.1465 19.402 83.604 19.102 84.024 18.697L85.8915 20.722C84.7515 22.027 83.0865 22.6795 80.8965 22.6795C79.5315 22.6795 78.324 22.417 77.274 21.892C76.224 21.352 75.414 20.6095 74.844 19.6645C74.274 18.7195 73.989 17.647 73.989 16.447C73.989 15.262 74.2665 14.197 74.8215 13.252C75.3915 12.292 76.164 11.5495 77.139 11.0245C78.129 10.4845 79.2315 10.2145 80.4465 10.2145C81.6315 10.2145 82.704 10.4695 83.664 10.9795C84.624 11.4895 85.374 12.2245 85.914 13.1845C86.469 14.1295 86.7465 15.232 86.7465 16.492ZM80.469 12.8695C79.674 12.8695 79.0065 13.0945 78.4665 13.5445C77.9265 13.9945 77.5965 14.6095 77.4765 15.3895H83.439C83.319 14.6245 82.989 14.017 82.449 13.567C81.909 13.102 81.249 12.8695 80.469 12.8695ZM92.4359 11.992C92.8559 11.407 93.4184 10.9645 94.1234 10.6645C94.8434 10.3645 95.6684 10.2145 96.5984 10.2145V13.4545C96.2084 13.4245 95.9459 13.4095 95.8109 13.4095C94.8059 13.4095 94.0184 13.6945 93.4484 14.2645C92.8784 14.8195 92.5934 15.6595 92.5934 16.7845V22.4995H89.0834V10.3945H92.4359V11.992ZM104.336 22.6795C103.061 22.6795 101.913 22.417 100.893 21.892C99.8881 21.352 99.1006 20.6095 98.5306 19.6645C97.9606 18.7195 97.6756 17.647 97.6756 16.447C97.6756 15.247 97.9606 14.1745 98.5306 13.2295C99.1006 12.2845 99.8881 11.5495 100.893 11.0245C101.913 10.4845 103.061 10.2145 104.336 10.2145C105.611 10.2145 106.751 10.4845 107.756 11.0245C108.761 11.5495 109.548 12.2845 110.118 13.2295C110.688 14.1745 110.973 15.247 110.973 16.447C110.973 17.647 110.688 18.7195 110.118 19.6645C109.548 20.6095 108.761 21.352 107.756 21.892C106.751 22.417 105.611 22.6795 104.336 22.6795ZM104.336 19.7995C105.236 19.7995 105.971 19.4995 106.541 18.8995C107.126 18.2845 107.418 17.467 107.418 16.447C107.418 15.427 107.126 14.617 106.541 14.017C105.971 13.402 105.236 13.0945 104.336 13.0945C103.436 13.0945 102.693 13.402 102.108 14.017C101.523 14.617 101.231 15.427 101.231 16.447C101.231 17.467 101.523 18.2845 102.108 18.8995C102.693 19.4995 103.436 19.7995 104.336 19.7995Z" fill="black"/>
<defs>
<linearGradient id="paint0_linear_311_9445" x1="25" y1="0" x2="25" y2="29.9991" gradientUnits="userSpaceOnUse">
<stop stop-color="#63CC00"/>
<stop offset="1" stop-color="#3A9700"/>
</linearGradient>
</defs>
</svg>
