<svg width="128" height="128" viewBox="0 0 128 128" fill="none" xmlns="http://www.w3.org/2000/svg">
<path d="M0 36C0 19.0294 0 10.5442 5.27208 5.27208C10.5442 0 19.0294 0 36 0H92C108.971 0 117.456 0 122.728 5.27208C128 10.5442 128 19.0294 128 36V92C128 108.971 128 117.456 122.728 122.728C117.456 128 108.971 128 92 128H36C19.0294 128 10.5442 128 5.27208 122.728C0 117.456 0 108.971 0 92V36Z" fill="url(#paint0_linear_323_11281)"/>
<path d="M63.5204 101.506C62.8601 101.51 62.2102 101.341 61.6356 101.016C56.7163 98.1694 20.2828 75.3255 18.9069 74.6281C17.8598 74.1394 17.1448 73.1384 17.0221 71.9893V39.9476C16.995 38.7515 17.5863 37.626 18.5865 36.9696L18.8504 36.8188C22.375 34.6324 34.1738 27.4325 36.0398 26.3958C36.468 26.1417 36.9557 26.0052 37.4534 26C37.9201 26.0053 38.3788 26.1216 38.7917 26.3393C38.7917 26.3393 55.3027 37.1015 57.8283 38.0628C59.6004 38.877 61.5327 39.2827 63.4828 39.2502C65.6923 39.2964 67.8757 38.7636 69.8156 37.7047C72.2848 36.4042 88.0606 26.3958 88.2302 26.3958C88.6279 26.1556 89.085 26.0315 89.5496 26.0377C90.0479 26.0401 90.5361 26.1769 90.9632 26.4335C93.112 27.6209 107.738 36.5738 108.36 36.9696C109.389 37.5902 110.012 38.7086 110 39.9099V71.9517C109.884 73.1035 109.167 74.1077 108.115 74.5904C106.739 75.3443 70.4188 98.1883 65.4052 100.978C64.8344 101.317 64.1842 101.499 63.5204 101.506Z" fill="url(#paint1_linear_323_11281)"/>
<path d="M63.3319 101.506L63.5204 101.505C64.1807 101.51 64.8307 101.341 65.4052 101.015C70.3246 98.1693 106.739 75.3255 108.115 74.6281C109.167 74.1453 109.884 73.1412 110 71.9893V39.9475C110.006 39.4051 109.883 38.869 109.642 38.3832L63.3319 63.8092V101.506Z" fill="url(#paint2_linear_323_11281)"/>
<path d="M63.1709 101.054L62.9844 101.054C62.3311 101.058 61.6881 100.891 61.1197 100.569C56.2528 97.7531 20.2262 75.1526 18.8649 74.4626C17.824 73.985 17.1143 72.9916 17.0002 71.852V40.1516C16.9942 39.6149 17.1156 39.0845 17.3545 38.6039L63.1709 63.7591V101.054Z" fill="url(#paint3_linear_323_11281)"/>
<defs>
<linearGradient id="paint0_linear_323_11281" x1="64" y1="0" x2="64" y2="128" gradientUnits="userSpaceOnUse">
<stop stop-color="#005AE2"/>
<stop offset="1" stop-color="#082182"/>
</linearGradient>
<linearGradient id="paint1_linear_323_11281" x1="16.9647" y1="26.69" x2="109.089" y2="25.9764" gradientUnits="userSpaceOnUse">
<stop offset="1e-07" stop-color="#FF9200"/>
<stop offset="0.337553" stop-color="#F36D00"/>
<stop offset="0.56729" stop-color="#F83C72"/>
<stop offset="0.78" stop-color="#FC1CBE"/>
<stop offset="0.93" stop-color="#FE08ED"/>
<stop offset="1" stop-color="#FF00FF"/>
</linearGradient>
<linearGradient id="paint2_linear_323_11281" x1="42.845" y1="93.6261" x2="136.77" y2="41.6208" gradientUnits="userSpaceOnUse">
<stop stop-color="#EE0A3F"/>
<stop offset="1" stop-color="#EE0A3F" stop-opacity="0"/>
</linearGradient>
<linearGradient id="paint3_linear_323_11281" x1="51.9854" y1="80.0732" x2="6.59895" y2="43.512" gradientUnits="userSpaceOnUse">
<stop stop-color="#ED6600"/>
<stop offset="1" stop-color="#F98200"/>
</linearGradient>
</defs>
</svg>
