<svg width="128" height="128" viewBox="0 0 128 128" fill="none" xmlns="http://www.w3.org/2000/svg">
<path d="M0 36C0 19.0294 0 10.5442 5.27208 5.27208C10.5442 0 19.0294 0 36 0H92C108.971 0 117.456 0 122.728 5.27208C128 10.5442 128 19.0294 128 36V92C128 108.971 128 117.456 122.728 122.728C117.456 128 108.971 128 92 128H36C19.0294 128 10.5442 128 5.27208 122.728C0 117.456 0 108.971 0 92V36Z" fill="#EE4D2D"/>
<path d="M63.5209 55.4742C83.6527 61.9467 91.2698 69.5599 89.83 81.4882C88.9317 88.8534 84.4771 94.7432 77.5861 97.7066C73.7344 99.3434 68.5907 100.224 64.5053 99.9509C58.1557 99.7153 52.1875 98.1654 46.6869 95.3383C44.6811 94.3092 41.7524 92.2757 39.5374 90.4158C39.0329 89.9942 38.7745 89.6098 39.2544 88.9278C39.7712 88.1467 41.814 85.1708 42.1339 84.6748C42.5769 84.0053 43.2906 83.9681 43.9428 84.4888C44.0289 84.5632 44.6934 85.084 44.8288 85.1832C50.1325 89.337 56.9497 92.4493 64.5422 92.7469C74.1159 92.6229 81.0562 88.3203 82.2991 81.6742C83.665 74.3461 77.8568 68.0596 66.6834 64.5506C63.1271 63.4346 54.1933 59.8512 52.5444 58.884C44.755 54.321 41.1248 48.3197 41.6417 40.9421C42.4415 30.7125 51.9168 23.0497 63.9393 23.0001C69.6367 22.9877 74.9896 24.2524 79.7641 26.2611C81.5238 26.9927 84.7848 28.7658 85.9538 29.6338C86.766 30.229 86.7044 30.8985 86.3845 31.4193C85.9046 32.2129 84.4895 34.4324 83.9234 35.3499C83.505 35.9947 82.9882 36.0567 82.2622 35.5979C76.1217 31.4565 69.7967 30.0554 64.0992 29.9438C55.8791 30.105 49.6895 34.9903 49.2834 41.686C49.1726 47.7369 53.7749 52.1263 63.5209 55.4742Z" fill="white"/>
</svg>
