<svg width="128" height="128" viewBox="0 0 128 128" fill="none" xmlns="http://www.w3.org/2000/svg">
<g clip-path="url(#clip0_323_11319)">
<path d="M100 0H28C12.536 0 0 12.536 0 28V100C0 115.464 12.536 128 28 128H100C115.464 128 128 115.464 128 100V28C128 12.536 115.464 0 100 0Z" fill="black"/>
<path d="M97.7466 34.3275C97.0466 33.9657 96.3653 33.5692 95.705 33.1393C93.7852 31.87 92.0248 30.3744 90.462 28.6847C86.5518 24.2107 85.0914 19.6717 84.5534 16.494H84.575C84.1257 13.8561 84.3116 12.1495 84.3396 12.1495H66.5298V81.0165C66.5298 81.9411 66.5298 82.8549 66.4909 83.758C66.4909 83.8703 66.4801 83.974 66.4737 84.0949C66.4737 84.1447 66.4737 84.1965 66.4629 84.2484C66.4629 84.2613 66.4629 84.2743 66.4629 84.2872C66.2752 86.7581 65.483 89.1451 64.1564 91.2381C62.8296 93.3311 61.0088 95.0659 58.8542 96.29C56.6086 97.5676 54.0689 98.2376 51.4853 98.2343C43.1874 98.2343 36.4624 91.4681 36.4624 83.112C36.4624 74.7559 43.1874 67.9897 51.4853 67.9897C53.0561 67.9883 54.6172 68.2355 56.1106 68.722L56.1322 50.5883C51.5985 50.0027 46.9925 50.3629 42.605 51.6464C38.2174 52.93 34.1436 55.1089 30.6402 58.0457C27.5706 60.7128 24.99 63.8952 23.0144 67.4496C22.2625 68.7459 19.426 73.9544 19.0825 82.4077C18.8665 87.2059 20.3074 92.1768 20.9944 94.2312V94.2744C21.4265 95.4843 23.1008 99.6126 25.8293 103.093C28.0294 105.885 30.6288 108.337 33.5438 110.371V110.328L33.587 110.371C42.2089 116.23 51.7684 115.845 51.7684 115.845C53.4232 115.778 58.9665 115.845 65.2617 112.862C72.244 109.554 76.2189 104.627 76.2189 104.627C78.7584 101.682 80.7776 98.3269 82.1901 94.7043C83.8017 90.4679 84.3396 85.3868 84.3396 83.3561V46.8207C84.5557 46.9503 87.4332 48.8535 87.4332 48.8535C87.4332 48.8535 91.5789 51.5107 98.0469 53.2412C102.687 54.4725 108.939 54.7317 108.939 54.7317V37.0516C106.749 37.2892 102.301 36.598 97.7466 34.3275Z" fill="white"/>
</g>
<defs>
<clipPath id="clip0_323_11319">
<rect width="128" height="128" fill="white"/>
</clipPath>
</defs>
</svg>
